<?xml version="1.0" encoding="UTF-8" standalone="no"?>
<!DOCTYPE svg PUBLIC "-//W3C//DTD SVG 1.1//EN" "http://www.w3.org/Graphics/SVG/1.1/DTD/svg11.dtd">
<svg width="100%" height="100%" viewBox="0 0 1080 1080" version="1.1" xmlns="http://www.w3.org/2000/svg" xmlns:xlink="http://www.w3.org/1999/xlink" xml:space="preserve" xmlns:serif="http://www.serif.com/" style="fill-rule:evenodd;clip-rule:evenodd;stroke-linecap:round;">
    <g transform="matrix(0.256532,0,0,0.256532,540,540)">
        <g transform="matrix(1,0,0,1,-2105,-2016)">
            <g transform="matrix(2,0,0,2,0,0)">
                <path d="M842.17,129.185C870.259,49.591 974.671,31.18 1028.29,96.366L1309.31,438.028C1344.08,480.305 1395.54,505.355 1450.28,506.688L1892.92,517.458C1977.43,519.514 2027.06,612.96 1981.59,683.991L1743.01,1056.67C1728.42,1079.45 1718.91,1105.1 1715.14,1131.89C1711.37,1158.67 1713.41,1185.96 1721.14,1211.88L1847.48,1635.71C1871.56,1716.47 1798.02,1792.73 1716.17,1771.46L1287.69,1660.12C1261.5,1653.31 1234.15,1652.22 1207.5,1656.92C1180.85,1661.62 1155.53,1672 1133.25,1687.35L768.691,1938.52C699.05,1986.5 603.859,1940 598.862,1855.88L572.638,1414.39C569.393,1359.76 542.508,1309.25 499.002,1276.02L147.339,1007.42C80.313,956.226 94.995,851.439 173.702,820.604L585.972,659.09C636.951,639.117 676.738,597.977 694.953,546.358L842.17,129.185Z" style="fill:rgb(255,175,243);fill-rule:nonzero;"/>
            </g>
            <g transform="matrix(2,0,0,2,0,0)">
                <path d="M918.858,20.365C868.918,29.171 823.273,62.328 804.375,115.88L657.157,533.053C642.805,573.725 611.496,606.107 571.306,621.853L159.037,783.367C53.245,824.813 32.795,970.329 122.985,1039.21L474.647,1307.81C491.58,1320.74 505.526,1337.16 515.533,1355.96C525.54,1374.77 531.372,1395.51 532.632,1416.77L558.857,1858.26C565.586,1971.52 697.701,2035.96 791.31,1971.47L1155.87,1720.3L1155.87,1720.29C1173.42,1708.19 1193.38,1700.01 1214.37,1696.31C1235.37,1692.61 1256.92,1693.47 1277.55,1698.84L1706.04,1810.18C1816.05,1838.77 1918.16,1733.03 1885.74,1624.29L1759.4,1200.46C1753.31,1180.05 1751.69,1158.57 1754.67,1137.47C1757.64,1116.38 1765.13,1096.18 1776.62,1078.25L1776.62,1078.24L2015.2,705.565L2015.2,705.563C2076.39,609.986 2007.41,480.239 1893.82,477.476L1451.18,466.706C1408.03,465.656 1367.53,445.935 1340.13,412.627L1059.11,70.961C1023.03,27.104 968.797,11.56 918.858,20.365ZM932.305,96.614C954.999,92.612 979.783,100.454 997.329,121.783L1278.34,463.441C1320.49,514.686 1382.91,545.068 1449.23,546.682L1891.87,557.451C1947.31,558.8 1977.59,615.944 1947.83,662.428L1709.24,1035.11C1673.46,1090.98 1663.78,1159.73 1682.73,1223.31L1809.08,1647.15C1824.81,1699.92 1779.83,1746.7 1726.16,1732.75L1297.67,1621.41C1233.46,1604.72 1165.1,1616.77 1110.47,1654.42L745.922,1905.59L745.92,1905.59C700.247,1937.06 641.981,1908.49 638.716,1853.51L612.492,1412.03C608.558,1345.8 575.934,1284.51 523.206,1244.24L171.544,975.638C127.682,942.136 136.596,878.079 188.219,857.856L600.49,696.339C662.257,672.14 710.522,622.241 732.6,559.676L732.599,559.674L879.817,142.502C889.007,116.461 909.612,100.616 932.306,96.615" style="fill:rgb(21,21,21);fill-rule:nonzero;"/>
            </g>
            <g transform="matrix(2,0,0,2,0,0)">
                <path d="M1112.35,1190C1193.52,1246.31 1324.15,1416.15 1197.29,1645.01" style="fill:none;fill-rule:nonzero;stroke:rgb(21,21,21);stroke-width:74px;"/>
            </g>
            <g transform="matrix(0.00522418,1.99999,-1.99999,0.00522418,4814.36,972.259)">
                <path d="M1112.35,1190C1193.52,1246.31 1324.15,1416.15 1197.29,1645.01" style="fill:none;fill-rule:nonzero;stroke:rgb(21,21,21);stroke-width:74px;"/>
            </g>
            <g transform="matrix(0.630052,1.89817,-1.89817,0.630052,4974.91,188.444)">
                <path d="M1100.13,1199.31C1150.8,1234.09 1251.72,1396.07 1148.37,1572.09" style="fill:none;fill-rule:nonzero;stroke:rgb(21,21,21);stroke-width:74px;"/>
            </g>
            <g transform="matrix(-2,0,0,2,4789.03,-713.11)">
                <path d="M1103.2,1534.29C1139.04,1563.55 1178.08,1629.1 1174.15,1674.28" style="fill:none;fill-rule:nonzero;stroke:rgb(21,21,21);stroke-width:74px;"/>
            </g>
        </g>
    </g>
</svg>
